<?xml version="1.0" standalone="yes"?>
<svg xmlns="http://www.w3.org/2000/svg" width="8209" height="2362">
<path style="fill:#ffffff; stroke:none;" d="M0 0L0 1352L412 1352L545 1352C565.882 1352 589.387 1355.06 610 1351.85C615.784 1350.95 619.832 1345.14 623.424 1341C630.23 1333.17 637.616 1325.84 644.424 1318C661.025 1298.89 678.672 1280.54 695.911 1262C714.932 1241.55 732.146 1220.53 763 1226.46C786.889 1231.05 799.396 1253.38 813.21 1271C834.748 1298.48 855.817 1326.34 877.119 1354C887.12 1366.99 896.995 1385.02 910 1395C928.351 1362.04 950.874 1330.72 971.308 1299C986.092 1276.05 999.198 1250.15 1016.47 1229C1029.77 1212.71 1052.96 1207.47 1072 1216.32C1098.99 1228.88 1099.32 1258.56 1103.59 1284C1113.7 1344.29 1123.11 1404.69 1133.08 1465C1141.73 1517.32 1150.04 1569.69 1158.75 1622C1160.89 1634.84 1161.3 1649.68 1165.53 1661.98C1167.27 1667.04 1173.5 1669.51 1177.26 1664.72C1181.27 1659.61 1179.59 1649.13 1180.17 1643C1181.97 1624.04 1182.79 1605 1184.09 1586C1189 1514.33 1194.18 1442.67 1199.09 1371C1216.92 1110.64 1236.08 850.364 1253.91 590C1258.5 522.995 1263.32 456.005 1267.91 389C1269.89 360.046 1265.71 323.063 1284.67 299C1309.84 267.051 1361.82 271.937 1380.74 308C1391.43 328.374 1390.75 355.453 1393.17 378C1397.6 419.363 1402.64 460.712 1407.72 502C1443 789.099 1471.73 1077.02 1508 1364L1509 1364C1530.88 1324.7 1558.71 1287.44 1583.67 1250C1598.63 1227.56 1614.68 1206.14 1644 1204.09C1681.82 1201.44 1701.1 1226.97 1720.72 1255C1734.01 1273.99 1747.19 1293.07 1760.58 1312C1767.37 1321.61 1773.97 1331.36 1780.72 1341C1783.1 1344.4 1785.92 1350.47 1790.18 1351.68C1795.75 1353.27 1803.24 1352 1809 1352L1848 1352L1976 1352L2393 1352C2393 1396.11 2391.43 1439.46 2383.58 1483C2369.12 1563.14 2338.15 1640.3 2304.31 1714C2205.58 1929.05 2037.51 2112.89 1835 2234.4C1767.99 2274.61 1696.87 2308.69 1623 2334.34C1595.26 2343.98 1565.22 2357.06 1536 2361L1536 2362L8209 2362L8209 1631C8186.95 1646.53 8168.58 1667.29 8146 1682.66C8094.21 1717.9 8035.89 1737.36 7974 1744.71C7914.8 1751.74 7850.09 1746.46 7793 1728.98C7720.52 1706.78 7655.32 1666.88 7608.88 1606C7550.11 1528.94 7529.8 1430.13 7533.96 1335C7537.36 1257.39 7556.65 1180.06 7602.43 1116C7676.07 1012.95 7808.24 960.576 7933 966.039C7996.19 968.807 8058.23 980.469 8113 1014.06C8130.11 1024.55 8146.74 1036.07 8162 1049.13C8170.96 1056.8 8180.41 1069.06 8191 1074C8186.59 1084.41 8175.71 1091.61 8168.42 1100C8148.11 1123.39 8125.85 1146.04 8104 1168C8097.17 1174.86 8090.83 1182.16 8084 1189C8081.92 1191.08 8079.13 1194.94 8076 1195.37C8070.67 1196.09 8060.31 1184.51 8056 1181.43C8039.95 1169.96 8022.47 1160.39 8004 1153.43C7943.9 1130.76 7877.62 1135.89 7821 1165.78C7710.73 1224 7685.31 1387.85 7753.03 1487C7779.47 1525.72 7820.71 1552.78 7866 1564.1C7915.69 1576.53 7972.48 1573.69 8020 1553.99C8037.59 1546.7 8054.08 1537.27 8069 1525.4C8072.78 1522.39 8082.07 1511.02 8087 1512.19C8090.98 1513.14 8095.18 1518.27 8098 1521.01C8106.09 1528.91 8114 1537 8122 1545C8140.65 1563.65 8159.93 1581.81 8179 1600.04C8188.87 1609.48 8197.82 1621.12 8209 1629L8209 0L1238 0L1238 1C1321.25 1 1406.35 15.4641 1487 35.6265C1862.32 129.456 2181.18 410.804 2308.66 778C2344.74 881.943 2364.16 990.33 2368.96 1100C2370.41 1133.16 2369.17 1166.97 2366.91 1200C2365.71 1217.58 2362.05 1235.38 2362 1253L2360 1253C2359.66 1212.29 2347.65 1168.69 2339.21 1129C2315.53 1017.6 2277.56 907.314 2223.31 807C2148.03 667.818 2050.85 542.074 1928 441.424C1837.89 367.598 1737.73 306.459 1630 262.011C1342.07 143.217 1007.43 148.186 724 278.309C612.064 329.699 509.303 398.569 418 481.17C311.138 577.847 223.121 697.265 158.753 826C109.897 923.712 74.5044 1027.18 51.7894 1134C43.6664 1172.2 32.8082 1213.84 32 1253L31 1253C24.1215 1224.19 25.2484 1192.41 23.9606 1163C19.4907 1060.92 33.1372 957.806 59.1157 859C164.934 456.532 496.631 143.125 896 38.1157C979.605 16.1328 1068.45 1 1155 1L1125 0L1057 0L820 0L0 0z"/>
<path style="fill:#695ffb; stroke:none;" d="M31 1253L32 1253C33.6785 1213.91 43.6696 1173.19 51.7894 1135C74.1612 1029.79 108.618 927.271 156.753 831C221.901 700.704 310.357 576.948 420 480.286C533.795 379.963 661.061 298.283 804 246.053C1184.28 107.1 1623.75 182.951 1933 446.427C2052.76 548.464 2148.58 669.829 2223.31 808C2275.07 903.702 2311.36 1008.14 2335.65 1114C2345.84 1158.39 2359.06 1207.3 2360 1253L2362 1253C2362.14 1235.71 2365.73 1218.25 2366.91 1201C2369.22 1167.32 2370.44 1132.82 2368.96 1099C2363.54 975.091 2339.26 852.715 2293.8 737C2256.64 642.423 2206.39 553.738 2146.12 472C1886.52 119.951 1436.42 -52.02 1008 14.4243C561.33 83.6985 174.704 418.374 59.1157 858C33.3709 955.917 16.9704 1061.65 23.9105 1163C25.8905 1191.91 22.6392 1224.98 31 1253M268 1159L269 1159C284.328 1092.14 313.188 1025.13 343.753 964C459.304 732.899 664.313 545.305 913 468.026C1008.75 438.27 1106.91 424 1207 424L1219 247C1055.75 247 897.834 279.986 752 355.259C532.491 468.559 359.649 673.735 294.849 913C273.358 992.351 261.512 1076.79 268 1159z"/>
<path style="fill:#010101; stroke:none;" d="M910 1395C875.547 1357.48 846.856 1313.21 815.576 1273C801.504 1254.91 788.45 1231.16 764 1226.46C732.637 1220.43 715.452 1239.99 695.911 1261C678.673 1279.54 661.025 1297.89 644.424 1317C637.329 1325.17 629.669 1332.83 622.576 1341C619.001 1345.11 614.728 1350.96 609 1351.85C588.387 1355.06 564.882 1352 544 1352L411 1352L0 1352C0 1411.42 5.13624 1472.01 18.8843 1530C38.4695 1612.61 74.4258 1694.55 114.691 1769C228.869 1980.12 401.276 2154.98 614 2267.22C691.359 2308.04 772.949 2338.32 857 2362C852.296 2355.61 838.257 2352.94 831 2349.85C809.143 2340.54 787.386 2331.09 766 2320.74C698.94 2288.29 635.547 2248.29 576 2203.63C399.211 2071.03 267.527 1886.83 191.947 1680C174.158 1631.32 160.762 1580.8 150.6 1530C145.942 1506.71 139.491 1481.8 139 1458L666 1458C670.26 1458 675.925 1458.95 679.961 1457.4C684.979 1455.46 689.261 1448.74 693 1445C703.175 1434.82 712.865 1424.19 723.001 1414C729.878 1407.09 738.714 1394.37 750 1396.97C764.326 1400.27 776.846 1423.38 786 1434C811.007 1463 835.366 1492.61 859.92 1522C871.708 1536.11 883.15 1554.67 902 1559.52C945.025 1570.59 968.712 1517.91 990.424 1490C996.719 1481.91 1012.16 1451.73 1024.89 1462.42C1033.56 1469.7 1032.78 1492.4 1034.42 1503C1040.11 1539.67 1045.65 1576.4 1051.75 1613C1076.26 1760.1 1096.89 1907.85 1121.08 2055C1125.84 2083.95 1130.45 2112.98 1134.73 2142C1137.26 2159.15 1138.01 2178.95 1144.87 2195C1153.94 2216.2 1174.35 2232.4 1198 2232.99C1224.3 2233.63 1250.36 2225.27 1263.03 2200C1272.94 2180.24 1270.62 2156.41 1272.09 2135C1275.02 2092.24 1279.48 2048.85 1280 2006C1280.39 1972.73 1283.64 1939.18 1285.91 1906C1290.18 1843.71 1292.64 1781.29 1296.91 1719C1307.82 1559.78 1314.01 1400.22 1324.91 1241C1329.37 1175.91 1334.42 1110.22 1336.01 1045C1336.41 1029.01 1338.95 1013.01 1339 997C1339.01 993.167 1338.27 982.156 1342.26 980.037C1345.69 978.217 1346.67 983.922 1346.95 986.001C1348.08 994.647 1348.98 1003.33 1349.95 1012C1354.03 1048.32 1357.7 1084.77 1362.58 1121C1377.78 1234.04 1387.02 1347.89 1401.72 1461C1407.35 1504.32 1403.14 1561.14 1453 1579.3C1478.99 1588.77 1508.9 1583.77 1528.57 1563.71C1540.67 1551.38 1548.91 1534.57 1558.05 1520C1574.56 1493.67 1591.15 1467.38 1607.58 1441C1615.28 1428.64 1623.12 1416.37 1630.81 1404C1634.87 1397.46 1639.73 1390.38 1648 1389.22C1655.59 1388.15 1661.97 1393.09 1666.1 1399C1675.39 1412.31 1683.05 1427.08 1691.4 1441C1694.54 1446.23 1698.18 1457.31 1705.04 1457.94C1724.99 1459.78 1745.96 1458 1766 1458L1887 1458L2253 1458C2251.78 1486.48 2244.56 1516.23 2238.42 1544C2226.87 1596.32 2212.34 1647.85 2193.42 1698C2112.43 1912.73 1966.22 2101.56 1777 2231.97C1729.61 2264.64 1679.83 2294.66 1628 2319.74C1597.15 2334.67 1564.98 2346.51 1534 2361L1534 2362C1564.15 2355.78 1594.05 2344.99 1623 2334.69C1688.76 2311.29 1752.37 2282.46 1813 2247.85C2025.59 2126.51 2201.96 1937.92 2304.31 1715C2338.15 1641.3 2369.12 1564.14 2383.58 1484C2391.49 1440.12 2393 1396.45 2393 1352L1978 1352L1850 1352C1832.27 1352 1808.15 1356.33 1791.09 1351.68C1786.63 1350.46 1783.91 1344.52 1781.42 1341C1774.39 1331.06 1767.61 1320.94 1760.58 1311C1747.42 1292.41 1734.58 1273.59 1721.42 1255C1700.93 1226.03 1683.46 1203.07 1645 1204.01C1614.76 1204.76 1598.21 1227.19 1583 1250C1567.96 1272.56 1553.38 1295.44 1538.33 1318C1528.8 1332.3 1515.08 1347.95 1509 1364C1503.82 1350.18 1504.51 1332.63 1502.72 1318C1498.87 1286.7 1495.19 1255.36 1491.83 1224C1481.04 1123.28 1469.1 1022.53 1456.72 922C1445.27 829.072 1435.28 735.966 1424.16 643C1415.3 569.028 1407.4 494.942 1398.28 421C1394.2 387.879 1394.61 351.215 1385.84 319C1374.47 277.202 1321.24 264.89 1290.01 292.3C1267.42 312.13 1270.77 345.881 1268.91 373C1264.62 435.573 1261.77 498.567 1255.83 561C1246.78 656.042 1242.43 751.75 1235.91 847C1224.61 1012.02 1212.4 1176.98 1201.09 1342C1195.56 1422.6 1191.82 1503.57 1184.17 1584C1182.31 1603.57 1181.43 1623.38 1180.09 1643C1179.67 1649.13 1181.12 1659.91 1176.57 1664.71C1172.83 1668.65 1167.78 1666.47 1165.88 1661.98C1162.26 1653.43 1162.27 1642.13 1160.75 1633C1153.92 1592.02 1147.18 1551.02 1140.59 1510C1129.77 1442.65 1118.96 1375.28 1107.75 1308C1103.62 1283.18 1104.52 1245.35 1086.56 1226.17C1069.47 1207.91 1038.25 1207.17 1020.04 1224.17C1002.76 1240.31 991.063 1267.16 978.308 1287C963.12 1310.62 947.995 1334.29 932.947 1358C925.478 1369.77 914.94 1381.97 910 1395z"/>
<path style="fill:#695ffb; stroke:none;" d="M1467 286C1467.15 303.622 1470.96 321.487 1472.83 339C1475.83 367.001 1478.82 395.088 1482.58 423C1484.14 434.634 1484.99 446.371 1486.58 458C1487.08 461.714 1486.7 467.347 1489.01 470.49C1493.45 476.511 1511 479.094 1518 481.681C1542.47 490.727 1566.2 501.253 1590 511.861C1657.59 541.984 1721 583.547 1779 629.211C1906 729.203 2004.7 862.614 2069.86 1010C2084.3 1042.67 2096.71 1076.12 2108 1110C2113.26 1125.78 2120.57 1142.52 2123 1159C2126.81 1153.97 2124.87 1145.09 2125.01 1139C2125.39 1123.6 2125.02 1108.38 2125 1093C2124.89 1022.74 2109.81 950.895 2089.03 884C2021.34 666.143 1864.7 479.988 1666 369.14C1622.03 344.61 1576.19 323.544 1529 305.95C1509.37 298.632 1487.78 289.07 1467 286M553 993C559.808 989.683 564.634 981.744 569.414 976C579.537 963.835 589.564 951.742 600.17 940C632.152 904.591 666.054 870.707 703 840.424C840.015 728.122 1012.9 659 1191 659L1203 482C954.065 482 714.245 611.448 600.969 838C576.274 887.39 563.15 939.128 553 993M1498 551C1498.03 594.08 1507.45 639.227 1512.72 682C1514.15 693.653 1515.21 705.358 1516.72 717C1517.24 721 1516.67 727.999 1519.03 731.363C1522.6 736.458 1533.53 739.51 1539 742.247C1553.96 749.729 1568.65 757.794 1583 766.4C1629.51 794.29 1673.72 825.785 1714 862.17C1745.36 890.491 1774.58 920.598 1802.83 952C1813.66 964.035 1824.45 985.633 1839 993C1820.09 844.162 1727.36 707.396 1609 618.627C1575.97 593.854 1537.48 564.444 1498 551z"/>
<path style="fill:#010101; stroke:none;" d="M3385 657.424C3346.51 662.478 3308.37 663.039 3270 671.211C3181.33 690.096 3097.59 733.322 3032 796.039C2880.43 940.974 2835.19 1175.88 2888.85 1374C2913.6 1465.38 2961.29 1552.85 3032 1616.83C3157.31 1730.21 3332.96 1764.29 3497 1742.72C3579.53 1731.87 3659.68 1703.24 3728 1655.28C3960.05 1492.37 4003.63 1134.88 3861.8 900C3794.35 788.305 3685.63 707.285 3559 675.627C3517.14 665.161 3474.99 659.843 3432 657.961C3416.61 657.287 3400.39 655.404 3385 657.424z"/>
<path style="fill:#695ffb; stroke:none;" d="M5654 678L5654 1725L5974 1725C6026.25 1725 6079 1726.8 6131 1721.83C6213.51 1713.95 6295.9 1690.46 6366 1645.31C6674.38 1446.68 6662.81 916.519 6337 740.309C6270.8 704.507 6197.41 687.252 6123 680.17C6075.1 675.611 6026.13 678 5978 678L5654 678z"/>
<path style="fill:#010101; stroke:none;" d="M4721 680L4721 1725L4892 1725L4904 1625L4905 1625C4909.38 1636.37 4919.83 1647.07 4927.93 1656C4948.1 1678.24 4972.09 1696.79 4999 1710.25C5101.99 1761.74 5242.29 1748.34 5341 1692.58C5512.57 1595.65 5558.21 1370.75 5495.31 1194C5478.01 1145.39 5449.9 1099.39 5412 1064.09C5320.07 978.459 5173.69 947.172 5054 983.975C5011.79 996.954 4970.01 1015.98 4937 1045.93C4925.3 1056.54 4910.74 1069.86 4905 1085L4904 1085L4904 680L4721 680z"/>
<path style="fill:#ffffff; stroke:none;" d="M3398 837.424C3374.34 840.531 3350.68 840.16 3327 844.804C3264.07 857.148 3204.04 887.815 3160.09 935C3068.22 1033.62 3044.7 1180.83 3075.12 1309C3089.85 1371.07 3118.62 1433.07 3165 1477.96C3242.55 1553 3354.33 1576.74 3459 1563.72C3499.25 1558.71 3540.15 1548.08 3576 1528.69C3726.56 1447.27 3773.47 1253.41 3734.63 1096C3702.18 964.506 3603.97 860.964 3467 841.87C3445.16 838.825 3419.97 834.54 3398 837.424M5851 866L5851 1534L6014 1534C6094.81 1534 6172.9 1531.52 6245 1490.13C6439.05 1378.73 6441.83 1045.88 6261 921.026C6185.89 869.162 6100.83 866 6013 866L5851 866z"/>
<path style="fill:#695ffb; stroke:none;" d="M8191 1074C8177.52 1064.5 8166.02 1051.33 8153 1041C8130.59 1023.23 8105.99 1008.24 8080 996.309C8036.65 976.405 7990.19 969.027 7943 966.961C7865.34 963.56 7784.93 978.027 7716 1015.31C7689.96 1029.4 7665.66 1046.91 7644 1067.09C7558.71 1146.54 7529.02 1266.17 7533.96 1379C7538.41 1480.6 7571.72 1580.94 7649 1650.83C7761.53 1752.61 7948.04 1775.77 8086 1716.28C8120.81 1701.27 8153.26 1680.57 8182 1655.87C8188.77 1650.05 8195.69 1644.32 8202 1638C8204.01 1635.98 8207.79 1633.17 8207.79 1630C8207.79 1626.83 8204.01 1624.02 8202 1622C8195.69 1615.64 8189.35 1609.32 8183 1603C8159.62 1579.73 8135.33 1557.33 8112 1534C8106.69 1528.69 8094.06 1511.17 8086 1511.21C8081.29 1511.23 8075.48 1519.37 8072 1522.2C8060.47 1531.56 8048.24 1539.95 8035 1546.74C7997.59 1565.91 7950.92 1574.82 7909 1570.83C7858.9 1566.06 7811.47 1548.9 7775.29 1512.71C7698.81 1436.24 7696.83 1295.21 7765.29 1213C7822.52 1144.26 7919.23 1122.71 8002 1153.05C8020.13 1159.7 8037.14 1169.07 8053 1180.03C8058.67 1183.94 8068.26 1195.32 8075 1196.08C8078.58 1196.49 8081.77 1192.22 8084 1190C8090.51 1183.5 8096.49 1176.52 8103 1170C8125.57 1147.39 8148.16 1123.96 8169.29 1100C8176.26 1092.1 8188.25 1084.57 8191 1074z"/>
<path style="fill:#010101; stroke:none;" d="M4256 1070C4249.62 1044.09 4244.15 1013.66 4243 987L4073 987L4073 1725L4256 1725L4256 1437C4256 1382.64 4249.66 1323.92 4264.15 1271C4284 1198.49 4349.19 1153.27 4423 1150.04C4456.85 1148.56 4492.07 1151.3 4523 1166.26C4533.53 1171.35 4543.63 1177.37 4553 1184.37C4558.86 1188.75 4564.83 1195.14 4572 1197C4588.75 1156.78 4612.76 1118.97 4632.25 1080C4637.28 1069.93 4642.71 1060.07 4647.75 1050C4649.39 1046.73 4653.22 1041.86 4652.26 1038.01C4650.46 1030.75 4636.75 1023.12 4631 1018.88C4608.21 1002.11 4581.11 989.505 4554 981.576C4479.51 959.787 4385.76 958.832 4319 1003.35C4292.92 1020.75 4273.37 1044.26 4256 1070z"/>
<path style="fill:#695ffb; stroke:none;" d="M7053 972.424C7025.86 975.988 6999.05 976.45 6972 982.211C6908.19 995.801 6847.24 1026.87 6800 1072.04C6649.06 1216.37 6642.77 1496.31 6798 1640.91C6888.13 1724.87 7013.05 1752.88 7133 1736.72C7182.6 1730.04 7231.92 1714.03 7275 1688.4C7482.4 1565.01 7511.38 1248.39 7343 1080C7299.78 1036.79 7244.66 1005.32 7186 988.579C7153.12 979.196 7119.14 973.822 7085 972.985C7074.34 972.724 7063.7 971.02 7053 972.424z"/>
<path style="fill:#ffffff; stroke:none;" d="M139 1458C139.32 1496.65 151.295 1538.68 160.627 1576C183.635 1668.04 217.468 1756.58 262.691 1840C358.975 2017.61 501.973 2165.43 674 2270.81C715.073 2295.97 757.958 2318.39 802 2337.86C820.06 2345.84 839.25 2356.29 858.286 2361.53C866.836 2363.88 878.151 2362 887 2362L948 2362L1146 2362L1410 2362L1493 2362C1505.45 2362 1520.89 2364.47 1533 2361.53C1556.37 2355.86 1580.21 2342.31 1602 2332.31C1658.83 2306.22 1712.97 2275.35 1765 2240.67C1967.31 2105.79 2122.68 1903.48 2202.34 1674C2219.76 1623.84 2233.99 1572.3 2243.42 1520C2247.07 1499.79 2252.58 1478.59 2253 1458L1887 1458L1766 1458C1746.26 1458 1725.67 1459.7 1706.02 1457.94C1698.77 1457.29 1695.3 1446.5 1692 1441C1682.99 1425.98 1668.46 1385.97 1647 1389.21C1638.67 1390.47 1634.28 1397.41 1630.19 1404C1622.72 1416.04 1615.07 1427.97 1607.58 1440C1590.94 1466.72 1574.06 1493.28 1557.42 1520C1548.31 1534.63 1539.97 1551.46 1527.71 1563.71C1507.96 1583.47 1478.86 1588.84 1453 1578.94C1403.94 1560.15 1407.03 1504.37 1401.84 1461C1388.29 1347.73 1376.66 1234.22 1362.72 1121C1358.2 1084.37 1354.07 1047.68 1349.95 1011C1348.98 1002.34 1348.09 993.647 1346.95 985.004C1346.66 982.852 1345.69 977.642 1342.26 979.256C1338.26 981.142 1339.01 992.311 1339 996C1338.95 1012.01 1336.41 1028.01 1336.01 1044C1334.42 1109.24 1331.01 1176.04 1324.83 1241C1311.94 1376.45 1310.21 1513.25 1300.91 1649C1295.85 1722.95 1292.98 1797.05 1287.91 1871C1284.87 1915.45 1280.53 1960.44 1280 2005C1279.48 2047.85 1275.02 2091.24 1272.09 2134C1270.64 2155.15 1272.77 2178.31 1263.51 2198C1251.6 2223.33 1225.33 2233.63 1199 2232.99C1174.98 2232.4 1154.07 2215.49 1144.87 2194C1138.01 2177.95 1137.26 2158.15 1134.73 2141C1130.45 2111.98 1125.84 2082.95 1121.08 2054C1097.4 1909.96 1073.46 1765.55 1053.13 1621C1047.64 1581.93 1041.12 1542.93 1034.75 1504C1033.04 1493.5 1033.92 1469.89 1025.77 1462.42C1012.56 1450.31 997.636 1479.8 991.21 1488C969.986 1515.08 945.066 1570.34 903 1559.52C884.437 1554.75 873.23 1536.87 861.589 1523C836.971 1493.67 812.573 1464.14 787.728 1435C778.259 1423.9 765.02 1399.79 750 1396.7C739.663 1394.56 732.489 1403.51 726 1410C714.503 1421.5 703.502 1433.48 692 1445C685.997 1451.01 682.13 1457.94 673 1458C495.019 1459.22 316.986 1458 139 1458M7055 1139.42C7010.58 1145.26 6971.23 1156.25 6937 1187.17C6847.38 1268.11 6843.54 1435.2 6930.01 1519.96C6974.41 1563.48 7038.56 1578.86 7099 1570.72C7123.51 1567.42 7147.49 1559.88 7169 1547.57C7252.59 1499.73 7283.66 1387.62 7260.12 1298C7236.74 1209 7153.57 1126.48 7055 1139.42M5110 1141.42C5069.04 1146.81 5031.47 1158.79 4998 1183.9C4897.06 1259.61 4889.1 1420.67 4976.09 1509.96C5021.82 1556.9 5091.78 1577.5 5156 1569.71C5217.71 1562.23 5272.66 1527.87 5305.57 1475C5362.61 1383.38 5344.98 1243.73 5255 1179.43C5233.92 1164.36 5210.11 1153.65 5185 1147.37C5161.32 1141.45 5134.37 1138.22 5110 1141.42M0 1380L0 2362L856 2362L856 2361C827.669 2357.18 797.769 2344.83 771 2335.05C715.104 2314.63 660.401 2291.65 608 2263.31C369.038 2134.06 177.199 1926.23 70.4275 1676C45.2317 1616.95 22.0878 1555.52 11.4352 1492C7.09569 1466.12 4.65049 1440.07 2.16975 1414C1.20603 1403.87 3.89551 1389.28 0 1380z"/>
</svg>
